<?xml version="1.0" encoding="UTF-8"?>
<svg width="96px" height="91px" viewBox="0 0 96 91" version="1.1" xmlns="http://www.w3.org/2000/svg" xmlns:xlink="http://www.w3.org/1999/xlink">
    <!-- Generator: Sketch 51.1 (57501) - http://www.bohemiancoding.com/sketch -->
    <title>Shape</title>
    <desc>Created with Sketch.</desc>
    <defs></defs>
    <g id="Page-1" stroke="none" stroke-width="1" fill="none" fill-rule="evenodd">
        <g id="Scale_98433" fill="#A4B5B8" fill-rule="nonzero">
            <path d="M91.492,56.44 L61.37,56.44 L76.431,19.427 L91.492,56.44 Z M34.63,49.66 L4.508,49.66 L19.569,12.647 L34.63,49.66 Z M93.763,56.44 L78.043,17.806 C79.408,17.241 80.443,15.984 80.636,14.411 C80.921,12.089 79.27,9.974 76.946,9.689 L50.37,6.428 L50.37,3.631 C50.37,1.875 48.947,0.452 47.192,0.452 C45.437,0.452 44.014,1.875 44.014,3.631 L44.014,5.647 L20.166,2.719 C17.841,2.433 15.729,4.085 15.443,6.408 C15.206,8.344 16.315,10.13 18.034,10.839 L2.237,49.66 L0.5,49.66 C0.5,57.589 9.038,64.015 19.569,64.015 C30.101,64.015 38.638,57.588 38.638,49.66 L36.901,49.66 L21.333,11.4 L44.014,14.185 L44.014,82.025 L28.971,82.025 C26.63,82.025 24.733,83.922 24.733,86.262 C24.733,88.602 26.63,90.5 28.971,90.5 L67.11,90.5 C69.45,90.5 71.346,88.603 71.346,86.263 C71.346,83.923 69.45,82.026 67.11,82.026 L50.37,82.026 L50.37,14.966 L74.757,17.96 L59.1,56.44 L57.362,56.44 C57.362,64.368 65.901,70.794 76.431,70.794 C86.963,70.794 95.5,64.367 95.5,56.44 L93.763,56.44 Z" id="Shape"></path>
        </g>
    </g>
</svg>